<svg width="14" height="11" viewBox="0 0 14 11" fill="none" xmlns="http://www.w3.org/2000/svg">
<path d="M5.89475 0C2.2105 0 0 2.93331 0 4.40012C0 5.86692 0.736735 6.96695 2.2105 6.96695C3.68426 6.96695 4.42128 7.33343 4.42128 8.43346C4.42128 9.89997 5.52638 11 7.00015 11C11.7898 11 14 8.43346 14 5.86692C13.9997 1.4668 10.3149 0 5.89475 0ZM4.97369 1.4668C5.0948 1.46695 5.21469 1.49078 5.32652 1.53692C5.43835 1.58306 5.53993 1.65061 5.62546 1.73572C5.71099 1.82082 5.77879 1.92181 5.825 2.03293C5.8712 2.14404 5.89491 2.2631 5.89475 2.3833C5.89475 2.88989 5.48234 3.30009 4.97369 3.30009C4.46503 3.30009 4.05262 2.8896 4.05262 2.3833C4.05247 2.2631 4.07617 2.14404 4.12238 2.03293C4.16858 1.92181 4.23639 1.82082 4.32191 1.73572C4.40744 1.65061 4.50902 1.58306 4.62085 1.53692C4.73269 1.49078 4.85258 1.46695 4.97369 1.4668ZM7.92063 1.4668C8.04174 1.46695 8.16163 1.49078 8.27346 1.53692C8.38529 1.58306 8.48687 1.65061 8.5724 1.73572C8.65793 1.82082 8.72573 1.92181 8.77194 2.03293C8.81814 2.14404 8.84184 2.2631 8.84169 2.3833C8.84188 2.50353 8.81821 2.62262 8.77202 2.73376C8.72583 2.84491 8.65804 2.94593 8.5725 3.03107C8.48697 3.1162 8.38538 3.18378 8.27353 3.22994C8.16168 3.2761 8.04176 3.29993 7.92063 3.30009C7.79952 3.2999 7.67963 3.27603 7.56782 3.22986C7.456 3.18368 7.35444 3.1161 7.26894 3.03097C7.18344 2.94584 7.11567 2.84482 7.0695 2.7337C7.02333 2.62257 6.99966 2.5035 6.99985 2.3833C6.99955 2.14059 7.09637 1.90769 7.26904 1.73582C7.44171 1.56395 7.67609 1.46719 7.92063 1.4668ZM10.8681 2.93331C10.9893 2.93343 11.1093 2.95724 11.2211 3.00338C11.333 3.04952 11.4347 3.11709 11.5202 3.20223C11.6058 3.28737 11.6736 3.38841 11.7198 3.49957C11.766 3.61074 11.7897 3.72985 11.7895 3.8501C11.7897 3.97034 11.766 4.08944 11.7198 4.20059C11.6736 4.31174 11.6058 4.41275 11.5202 4.49787C11.4346 4.58299 11.333 4.65053 11.2211 4.69664C11.1092 4.74275 10.9893 4.76652 10.8681 4.7666C10.747 4.76649 10.6271 4.74268 10.5153 4.69655C10.4035 4.65042 10.3019 4.58287 10.2164 4.49775C10.1309 4.41263 10.0631 4.31163 10.0169 4.2005C9.97079 4.08937 9.94715 3.9703 9.94738 3.8501C9.94715 3.72989 9.97078 3.6108 10.0169 3.49966C10.0631 3.38852 10.1309 3.28749 10.2164 3.20235C10.3019 3.11721 10.4035 3.04963 10.5153 3.00347C10.6271 2.9573 10.747 2.93347 10.8681 2.93331ZM2.39483 3.66686C2.51591 3.66697 2.63578 3.69077 2.74759 3.73688C2.85941 3.78299 2.96097 3.85052 3.04648 3.93561C3.13199 4.02069 3.19977 4.12167 3.24594 4.23276C3.29212 4.34385 3.31579 4.46289 3.3156 4.58307C3.3156 5.08966 2.90319 5.49986 2.39483 5.49986C1.88646 5.49986 1.47376 5.08937 1.47376 4.58307C1.47353 4.34036 1.57043 4.10749 1.74315 3.93567C1.91588 3.76386 2.15029 3.66717 2.39483 3.66686ZM6.99985 7.33343C7.6103 7.33343 8.10496 7.82555 8.10496 8.43375C8.10496 9.04108 7.6103 9.53349 6.99985 9.53349C6.38941 9.53349 5.89475 9.04108 5.89475 8.43375C5.89448 8.28947 5.92286 8.14655 5.97826 8.01316C6.03366 7.87977 6.11499 7.75852 6.21762 7.65634C6.32024 7.55416 6.44215 7.47305 6.57637 7.41764C6.71059 7.36224 6.85449 7.33362 6.99985 7.33343Z" fill="#F0694F"/>
</svg>
