<svg width="55" height="55" viewBox="0 0 55 55" fill="none" xmlns="http://www.w3.org/2000/svg">
<path d="M44.4784 40.8967C44.9539 41.3722 45.2211 42.0172 45.2211 42.6897C45.2211 43.3622 44.9539 44.0071 44.4784 44.4826C44.0029 44.9582 43.3579 45.2253 42.6854 45.2253C42.0129 45.2253 41.368 44.9582 40.8925 44.4826L27.5 31.086L14.1034 44.4784C13.6279 44.954 12.9829 45.2211 12.3104 45.2211C11.6379 45.2211 10.993 44.954 10.5175 44.4784C10.0419 44.0029 9.77478 43.358 9.77478 42.6855C9.77478 42.013 10.0419 41.368 10.5175 40.8925L23.9141 27.5001L10.5217 14.1034C10.0461 13.6279 9.779 12.9829 9.779 12.3105C9.779 11.638 10.0461 10.993 10.5217 10.5175C10.9972 10.042 11.6421 9.77481 12.3146 9.77481C12.9871 9.77481 13.6321 10.042 14.1076 10.5175L27.5 23.9141L40.8967 10.5154C41.3722 10.0399 42.0171 9.77271 42.6896 9.77271C43.3621 9.77271 44.0071 10.0399 44.4826 10.5154C44.9581 10.9909 45.2253 11.6359 45.2253 12.3083C45.2253 12.9808 44.9581 13.6258 44.4826 14.1013L31.086 27.5001L44.4784 40.8967Z" fill="white"/>
</svg>
