<svg width="26" height="26" viewBox="0 0 26 26" fill="none" xmlns="http://www.w3.org/2000/svg">
<path d="M3.93364 2.29875C2.96569 1.81505 1.89427 2.73859 2.22956 3.76721L4.40381 10.4324C4.46531 10.6207 4.57725 10.7886 4.72748 10.9177C4.8777 11.0468 5.06045 11.1322 5.25585 11.1648L13.8467 12.5964C14.299 12.6722 14.299 13.3222 13.8467 13.398L5.25639 14.8297C5.06099 14.8622 4.87824 14.9476 4.72802 15.0768C4.57779 15.2059 4.46585 15.3737 4.40435 15.562L2.22956 22.231C1.89373 23.2602 2.96569 24.1837 3.93364 23.7L23.1596 14.0898C24.0582 13.6402 24.0582 12.358 23.1596 11.909L3.93364 2.29875Z" fill="#F0694F"/>
</svg>
