<svg width="10" height="12" viewBox="0 0 10 12" fill="none" xmlns="http://www.w3.org/2000/svg">
<path d="M9.00001 0C9.1633 2.15404e-05 9.3209 0.0599708 9.44293 0.168477C9.56495 0.276983 9.64291 0.426499 9.66201 0.588667L9.66668 0.666667V11.3333C9.66649 11.5033 9.60143 11.6667 9.48478 11.7902C9.36813 11.9138 9.20871 11.9882 9.03908 11.9981C8.86945 12.0081 8.70243 11.9529 8.57212 11.8438C8.44182 11.7348 8.35808 11.5801 8.33801 11.4113L8.33334 11.3333V8H7.66668C7.50339 7.99998 7.34579 7.94003 7.22376 7.83152C7.10174 7.72302 7.02378 7.5735 7.00468 7.41133L7.00001 7.33333V3.33333C7.00001 1.86 8.00001 0 9.00001 0ZM5.00001 0C5.1633 2.15404e-05 5.3209 0.0599708 5.44293 0.168477C5.56495 0.276983 5.64291 0.426499 5.66201 0.588667L5.66668 0.666667V4C5.6666 4.59125 5.47013 5.16572 5.10812 5.63319C4.74612 6.10065 4.23909 6.43463 3.66668 6.58267V11.3333C3.66649 11.5033 3.60142 11.6667 3.48478 11.7902C3.36813 11.9138 3.20871 11.9882 3.03908 11.9981C2.86945 12.0081 2.70242 11.9529 2.57212 11.8438C2.44182 11.7348 2.35808 11.5801 2.33801 11.4113L2.33334 11.3333V6.58267C1.78365 6.44056 1.29362 6.1268 0.93452 5.68701C0.575424 5.24722 0.36599 4.70435 0.336677 4.13733L0.333344 4V0.666667C0.333532 0.496747 0.398596 0.333312 0.515242 0.209754C0.631888 0.0861971 0.791312 0.0118433 0.96094 0.00188526C1.13057 -0.00807283 1.2976 0.0471164 1.4279 0.156177C1.5582 0.265237 1.64194 0.419936 1.66201 0.588667L1.66668 0.666667V4C1.66668 4.23404 1.72829 4.46396 1.84532 4.66665C1.96234 4.86933 2.13066 5.03765 2.33334 5.15467V0.666667C2.33353 0.496747 2.3986 0.333312 2.51524 0.209754C2.63189 0.0861971 2.79131 0.0118433 2.96094 0.00188526C3.13057 -0.00807283 3.2976 0.0471164 3.4279 0.156177C3.5582 0.265237 3.64194 0.419936 3.66201 0.588667L3.66668 0.666667L3.66734 5.15467C3.85339 5.04713 4.01068 4.89622 4.12583 4.71479C4.24098 4.53336 4.31057 4.32679 4.32868 4.11267L4.33334 4V0.666667C4.33334 0.489856 4.40358 0.320286 4.52861 0.195262C4.65363 0.0702379 4.8232 0 5.00001 0Z" fill="#F0694F"/>
</svg>
