<svg width="57" height="58" viewBox="0 0 57 58" fill="none" xmlns="http://www.w3.org/2000/svg">
<path d="M42.75 7.875C43.3317 7.87508 43.8932 8.08865 44.3279 8.4752C44.7626 8.86175 45.0403 9.3944 45.1084 9.97212L45.125 10.25V48.25C45.1243 48.8553 44.8925 49.4376 44.477 49.8777C44.0614 50.3179 43.4935 50.5828 42.8892 50.6183C42.2849 50.6538 41.6898 50.4571 41.2256 50.0686C40.7614 49.6801 40.4631 49.129 40.3916 48.5279L40.375 48.25V36.375H38C37.4183 36.3749 36.8568 36.1614 36.4221 35.7748C35.9874 35.3882 35.7097 34.8556 35.6416 34.2779L35.625 34V19.75C35.625 14.5012 39.1875 7.875 42.75 7.875ZM28.5 7.875C29.0817 7.87508 29.6432 8.08865 30.0779 8.4752C30.5126 8.86175 30.7903 9.3944 30.8584 9.97212L30.875 10.25V22.125C30.8747 24.2313 30.1748 26.2779 28.8852 27.9432C27.5955 29.6086 25.7892 30.7984 23.75 31.3257V48.25C23.7493 48.8553 23.5175 49.4376 23.102 49.8777C22.6864 50.3179 22.1185 50.5828 21.5142 50.6183C20.9099 50.6538 20.3148 50.4571 19.8506 50.0686C19.3864 49.6801 19.0881 49.129 19.0166 48.5279L19 48.25V31.3257C17.0417 30.8195 15.296 29.7017 14.0167 28.135C12.7374 26.5682 11.9913 24.6342 11.8869 22.6143L11.875 22.125V10.25C11.8757 9.64466 12.1075 9.06242 12.523 8.62225C12.9386 8.18208 13.5065 7.91719 14.1108 7.88172C14.7151 7.84624 15.3102 8.04285 15.7744 8.43138C16.2386 8.81991 16.5369 9.37102 16.6084 9.97212L16.625 10.25V22.125C16.625 22.9588 16.8445 23.7779 17.2614 24.4999C17.6783 25.222 18.2779 25.8216 19 26.2385V10.25C19.0007 9.64466 19.2325 9.06242 19.648 8.62225C20.0636 8.18208 20.6315 7.91719 21.2358 7.88172C21.8401 7.84624 22.4352 8.04285 22.8994 8.43138C23.3636 8.81991 23.6619 9.37102 23.7334 9.97212L23.75 10.25L23.7524 26.2385C24.4151 25.8554 24.9755 25.3178 25.3857 24.6714C25.7959 24.0251 26.0439 23.2892 26.1084 22.5264L26.125 22.125V10.25C26.125 9.62011 26.3752 9.01602 26.8206 8.57062C27.266 8.12522 27.8701 7.875 28.5 7.875Z" fill="white"/>
</svg>
