<svg width="55" height="54" viewBox="0 0 55 54" fill="none" xmlns="http://www.w3.org/2000/svg">
<path fill-rule="evenodd" clip-rule="evenodd" d="M32.5625 6.75C32.1149 6.75 31.6857 6.57221 31.3692 6.25574C31.0528 5.93928 30.875 5.51005 30.875 5.0625C30.875 4.61495 31.0528 4.18572 31.3692 3.86926C31.6857 3.55279 32.1149 3.375 32.5625 3.375H49.4375C49.885 3.375 50.3143 3.55279 50.6307 3.86926C50.9472 4.18572 51.125 4.61495 51.125 5.0625V21.9375C51.125 22.3851 50.9472 22.8143 50.6307 23.1307C50.3143 23.4472 49.885 23.625 49.4375 23.625C48.9899 23.625 48.5607 23.4472 48.2442 23.1307C47.9278 22.8143 47.75 22.3851 47.75 21.9375V9.13613L33.8146 23.0715C36.5545 26.4235 37.9012 30.7003 37.5763 35.0174C37.2514 39.3345 35.2798 43.3616 32.0691 46.2658C28.8584 49.17 24.6544 50.7292 20.3264 50.6208C15.9985 50.5124 11.8778 48.7448 8.81648 45.6835C5.75521 42.6222 3.98758 38.5015 3.8792 34.1735C3.77081 29.8456 5.32995 25.6416 8.23416 22.4309C11.1384 19.2202 15.1655 17.2485 19.4825 16.9237C23.7996 16.5988 28.0765 17.9455 31.4285 20.6854L45.3639 6.75H32.5625ZM20.75 20.25C17.1696 20.25 13.7358 21.6723 11.204 24.2041C8.67229 26.7358 7.24998 30.1696 7.24998 33.75C7.24998 37.3304 8.67229 40.7642 11.204 43.2959C13.7358 45.8277 17.1696 47.25 20.75 47.25C24.3304 47.25 27.7642 45.8277 30.2959 43.2959C32.8277 40.7642 34.25 37.3304 34.25 33.75C34.25 30.1696 32.8277 26.7358 30.2959 24.2041C27.7642 21.6723 24.3304 20.25 20.75 20.25Z" fill="white"/>
</svg>
