<svg width="11" height="11" viewBox="0 0 11 11" fill="none" xmlns="http://www.w3.org/2000/svg">
<path d="M10.9807 7.88691C10.9807 8.83609 10.0573 9.60566 8.9375 9.60566C7.81773 9.60566 6.89434 8.83609 6.89434 7.90625C6.89434 6.95707 7.81773 6.20684 8.9375 6.20684C9.17984 6.20684 9.40908 6.24809 9.62522 6.31207V3.18184L4.125 4.8125L4.12496 9.2834C4.10566 10.2309 3.20117 11 2.04316 11C0.885156 11 0 10.2309 0 9.28125C0 8.33207 0.923398 7.58184 2.04316 7.58184C2.28551 7.58184 2.51475 7.62309 2.73066 7.68707V2.71777C2.73066 2.43912 2.9468 2.14564 3.21213 2.06207L10.0678 0.0320117C10.1428 0.0142012 10.2545 0 10.3125 0C10.6919 0 10.9994 0.308086 11 0.687285L10.9807 7.88691Z" fill="#F0694F"/>
</svg>
