<svg width="133" height="133" viewBox="0 0 133 133" fill="none" xmlns="http://www.w3.org/2000/svg">
<path d="M47.7138 102.5V90.8636H51.6456C52.5585 90.8636 53.3047 91.0284 53.8842 91.358C54.4676 91.6837 54.8994 92.125 55.1797 92.6818C55.46 93.2386 55.6001 93.8598 55.6001 94.5455C55.6001 95.2311 55.46 95.8542 55.1797 96.4148C54.9032 96.9754 54.4751 97.4223 53.8956 97.7557C53.3161 98.0852 52.5736 98.25 51.6683 98.25H48.8501V97H51.6229C52.2479 97 52.7498 96.892 53.1286 96.6761C53.5073 96.4602 53.782 96.1686 53.9524 95.8011C54.1267 95.4299 54.2138 95.0114 54.2138 94.5455C54.2138 94.0795 54.1267 93.6629 53.9524 93.2955C53.782 92.928 53.5054 92.6402 53.1229 92.4318C52.7403 92.2197 52.2327 92.1136 51.6001 92.1136H49.1229V102.5H47.7138ZM60.2564 102.705C59.7034 102.705 59.2015 102.6 58.7507 102.392C58.3 102.18 57.942 101.875 57.6768 101.477C57.4117 101.076 57.2791 100.591 57.2791 100.023C57.2791 99.5227 57.3776 99.1174 57.5746 98.8068C57.7715 98.4924 58.0348 98.2462 58.3643 98.0682C58.6939 97.8902 59.0575 97.7576 59.4553 97.6705C59.8568 97.5795 60.2602 97.5076 60.6655 97.4545C61.1958 97.3864 61.6257 97.3352 61.9553 97.3011C62.2886 97.2633 62.531 97.2008 62.6825 97.1136C62.8378 97.0265 62.9155 96.875 62.9155 96.6591V96.6136C62.9155 96.053 62.7621 95.6174 62.4553 95.3068C62.1522 94.9962 61.692 94.8409 61.0746 94.8409C60.4344 94.8409 59.9325 94.9811 59.5689 95.2614C59.2053 95.5417 58.9496 95.8409 58.8018 96.1591L57.5291 95.7045C57.7564 95.1742 58.0594 94.7614 58.4382 94.4659C58.8208 94.1667 59.2375 93.9583 59.6882 93.8409C60.1428 93.7197 60.5897 93.6591 61.0291 93.6591C61.3094 93.6591 61.6314 93.6932 61.995 93.7614C62.3625 93.8258 62.7166 93.9602 63.0575 94.1648C63.4022 94.3693 63.6882 94.678 63.9155 95.0909C64.1428 95.5038 64.2564 96.0568 64.2564 96.75V102.5H62.9155V101.318H62.8473C62.7564 101.508 62.6049 101.71 62.3928 101.926C62.1806 102.142 61.8984 102.326 61.5462 102.477C61.1939 102.629 60.764 102.705 60.2564 102.705ZM60.4609 101.5C60.9912 101.5 61.4382 101.396 61.8018 101.188C62.1693 100.979 62.4458 100.71 62.6314 100.381C62.8208 100.051 62.9155 99.7045 62.9155 99.3409V98.1136C62.8587 98.1818 62.7337 98.2443 62.5405 98.3011C62.3511 98.3542 62.1314 98.4015 61.8814 98.4432C61.6352 98.4811 61.3946 98.5152 61.1598 98.5455C60.9287 98.572 60.7412 98.5947 60.5973 98.6136C60.2488 98.6591 59.9231 98.733 59.62 98.8352C59.3208 98.9337 59.0784 99.0833 58.8928 99.2841C58.7109 99.4811 58.62 99.75 58.62 100.091C58.62 100.557 58.7924 100.909 59.1371 101.148C59.4856 101.383 59.9268 101.5 60.4609 101.5ZM66.7038 102.5V93.7727H67.9993V95.0909H68.0902C68.2493 94.6591 68.5372 94.3087 68.9538 94.0398C69.3705 93.7708 69.8402 93.6364 70.3629 93.6364C70.4614 93.6364 70.5845 93.6383 70.7322 93.642C70.88 93.6458 70.9917 93.6515 71.0675 93.6591V95.0227C71.022 95.0114 70.9179 94.9943 70.755 94.9716C70.5959 94.9451 70.4273 94.9318 70.2493 94.9318C69.825 94.9318 69.4463 95.0208 69.1129 95.1989C68.7834 95.3731 68.522 95.6155 68.3288 95.9261C68.1394 96.233 68.0447 96.5833 68.0447 96.9773V102.5H66.7038ZM76.9993 93.7727V94.9091H72.4766V93.7727H76.9993ZM73.7947 91.6818H75.1357V100C75.1357 100.379 75.1906 100.663 75.3004 100.852C75.4141 101.038 75.558 101.163 75.7322 101.227C75.9103 101.288 76.0978 101.318 76.2947 101.318C76.4425 101.318 76.5637 101.311 76.6584 101.295C76.7531 101.277 76.8288 101.261 76.8857 101.25L77.1584 102.455C77.0675 102.489 76.9406 102.523 76.7777 102.557C76.6148 102.595 76.4084 102.614 76.1584 102.614C75.7796 102.614 75.4084 102.532 75.0447 102.369C74.6849 102.206 74.3857 101.958 74.147 101.625C73.9122 101.292 73.7947 100.871 73.7947 100.364V91.6818ZM79.88 105.773C79.6527 105.773 79.45 105.754 79.272 105.716C79.094 105.682 78.9709 105.648 78.9027 105.614L79.2436 104.432C79.5694 104.515 79.8572 104.545 80.1072 104.523C80.3572 104.5 80.5788 104.388 80.772 104.188C80.969 103.991 81.1489 103.67 81.3118 103.227L81.5618 102.545L78.3345 93.7727H79.7891L82.1982 100.727H82.2891L84.6982 93.7727H86.1527L82.4482 103.773C82.2815 104.223 82.075 104.597 81.8288 104.892C81.5826 105.191 81.2966 105.413 80.9709 105.557C80.6489 105.701 80.2853 105.773 79.88 105.773Z" fill="white"/>
<path d="M78.287 42.1662C77.5157 41.2877 76.7229 40.4092 75.8873 39.5735L75.266 38.995L75.566 38.7378C76.6137 37.8384 77.3604 36.6391 77.7052 35.3019C78.0501 33.9646 77.9764 32.5538 77.4943 31.2598C76.7956 29.8005 75.6893 28.5748 74.3092 27.7307C72.929 26.8865 71.3339 26.4601 69.7167 26.5029V30.7884C70.479 30.7778 71.2304 30.9707 71.8932 31.3474C72.5561 31.724 73.1065 32.2707 73.4876 32.9311C73.8519 33.7882 73.4876 34.731 72.4806 35.738C72.3306 35.9095 72.1592 36.0166 72.0093 36.1666C65.5815 31.0026 58.5324 28.0885 55.0828 31.5383C54.7214 31.9077 54.4245 32.335 54.2043 32.8025V33.0168L53.8187 34.1524L44.3698 62.222C44.0124 63.2798 43.9122 64.4075 44.0774 65.5118C44.2425 66.616 44.6684 67.665 45.3197 68.5718C45.971 69.4787 46.829 70.2173 47.8226 70.7265C48.8162 71.2357 49.9168 71.5009 51.0333 71.5C51.7623 71.4929 52.4855 71.37 53.1759 71.1357L82.5722 61.3864C82.9335 61.2519 83.2518 61.0224 83.4935 60.7221L83.9435 60.3364C87.0074 57.2509 85.0362 51.3156 80.9224 45.5517C83.3651 44.126 86.1777 43.462 89 43.6447V39.3592C85.2234 39.1514 81.4766 40.1331 78.287 42.1662ZM51.9332 67.0646C51.4468 67.2256 50.9253 67.2482 50.4268 67.13C49.9284 67.0117 49.4726 66.7573 49.1103 66.395C48.7481 66.0327 48.4936 65.5769 48.3754 65.0784C48.2571 64.5799 48.2798 64.0583 48.4407 63.5719L51.3547 54.7868C53.4342 58.7527 56.6296 62.0228 60.5464 64.1933L51.9332 67.0646ZM66.9313 62.072C63.6933 61.2145 60.7394 59.5162 58.3689 57.1494C55.9985 54.7826 54.2957 51.8312 53.433 48.5943L55.5756 42.1662L55.7041 42.359C55.9398 42.8304 56.2398 43.3233 56.5397 43.8161C56.8397 44.3089 56.8826 44.4375 57.0968 44.7589C57.3111 45.0803 57.8039 45.7874 58.1895 46.3231C58.5752 46.8587 58.5966 46.923 58.8323 47.223C59.068 47.523 59.7536 48.4015 60.2464 48.98L60.8678 49.73C61.5963 50.5656 62.3676 51.3799 63.1818 52.2155C63.996 53.0512 64.6387 53.5869 65.3244 54.3583L66.0314 54.9582L67.7026 56.3081L68.4954 56.9081C69.0953 57.3366 69.6738 57.7652 70.2738 58.1509L70.938 58.5794C71.7093 59.0508 72.4806 59.5008 73.2305 59.8865H73.3377L66.9313 62.072ZM80.8796 57.2938H80.751C79.2726 58.108 73.1234 56.0724 66.2028 49.13C65.4743 48.4015 64.7887 47.6944 64.1674 46.9873L63.546 46.2374L62.4104 44.866L61.7891 44.0089C61.5106 43.6018 61.2106 43.2161 60.9535 42.8304L60.3964 41.9305L59.7751 40.9234C59.6036 40.6234 59.4751 40.3449 59.3251 40.0663C59.1751 39.7878 59.0037 39.5092 58.8752 39.2092C58.7603 38.9582 58.6601 38.7006 58.5752 38.4379C58.4681 38.1593 58.3395 37.8808 58.2538 37.6236C58.1681 37.3665 58.1467 37.2165 58.0824 36.9594C58.0181 36.7023 57.9753 36.488 57.9324 36.2737C57.9217 36.0882 57.9217 35.9022 57.9324 35.7166C57.9118 35.5458 57.9118 35.3732 57.9324 35.2024L58.1681 34.5381C58.9394 33.7667 62.9461 34.5381 68.3026 38.6093C67.3946 39.0191 66.4239 39.2727 65.4315 39.3592V43.6447C67.7074 43.5138 69.9156 42.8218 71.8593 41.6305L72.8877 42.6162C73.7876 43.5161 74.6232 44.4375 75.416 45.3588C74.1895 47.5768 73.7372 50.1403 74.1304 52.6441L78.4156 51.8084C78.2893 51.0135 78.2893 50.2035 78.4156 49.4086C79.0695 50.4002 79.6496 51.4387 80.1511 52.5155C81.3509 55.3439 81.2652 56.9295 80.8796 57.2938Z" fill="white"/>
<rect x="1" y="1" width="131" height="131" rx="19" stroke="white" stroke-width="2"/>
</svg>
