<svg width="18" height="17" viewBox="0 0 18 17" fill="none" xmlns="http://www.w3.org/2000/svg">
<path d="M6.3254 5.33685L6.20834 5.57109L5.94914 5.60827L0.644629 6.36916C0.644451 6.36919 0.644272 6.36921 0.644094 6.36924C0.541912 6.3845 0.490192 6.4715 0.501833 6.54598L0.501863 6.54597L0.502676 6.55157C0.50728 6.58338 0.522661 6.61488 0.549471 6.64095C0.549583 6.64106 0.549694 6.64117 0.549807 6.64128L4.38789 10.3346L4.57931 10.5188L4.5338 10.7805L3.62682 15.997L3.62675 15.9974C3.61294 16.0764 3.66594 16.1629 3.76353 16.1795L3.76424 16.1797C3.8027 16.1863 3.84142 16.1795 3.87135 16.1638L3.87359 16.1626L8.61958 13.6998L8.84988 13.5803L9.08018 13.6998L13.8262 16.1626L13.8269 16.163C13.8551 16.1777 13.8874 16.1846 13.92 16.1823C13.9526 16.18 13.9833 16.1687 14.0087 16.1505C14.034 16.1324 14.0528 16.1082 14.0639 16.0814C14.0749 16.0546 14.078 16.0257 14.0731 15.9977L14.0729 15.997L13.166 10.7805L13.1204 10.5188L13.3119 10.3346L17.1509 6.64038L17.1509 6.64035C17.1825 6.60998 17.1993 6.5699 17.1998 6.52932C17.2004 6.48904 17.1849 6.44891 17.1547 6.41793C17.1283 6.39163 17.0945 6.37472 17.0579 6.36956L17.0567 6.36939L11.7506 5.60827L11.4914 5.57109L11.3743 5.33685L9.00362 0.593114C9.00348 0.592833 9.00334 0.592553 9.00319 0.592273C8.96211 0.512353 8.85827 0.475586 8.77213 0.517558L8.77156 0.517838C8.7383 0.533987 8.71269 0.559918 8.69757 0.590246L8.69735 0.590682L6.3254 5.33685ZM14.5652 15.9114L14.5652 15.9114L14.5652 15.9114Z" stroke="#F0694F"/>
</svg>
