<svg width="20" height="21" viewBox="0 0 20 21" fill="none" xmlns="http://www.w3.org/2000/svg">
<path d="M0.716423 7.62062L6.6672 6.71974L9.32736 1.10206C9.40002 0.948251 9.51955 0.823739 9.6672 0.748056C10.0375 0.557626 10.4875 0.716318 10.6727 1.10206L13.3328 6.71974L19.2836 7.62062C19.4477 7.64503 19.5977 7.72559 19.7125 7.84767C19.8514 7.99631 19.9279 8.1963 19.9252 8.40368C19.9226 8.61105 19.841 8.80886 19.6985 8.95362L15.393 13.3262L16.4102 19.5005C16.434 19.6441 16.4188 19.7918 16.3661 19.9269C16.3135 20.062 16.2256 20.1789 16.1124 20.2646C15.9991 20.3503 15.8651 20.4012 15.7256 20.4115C15.586 20.4219 15.4464 20.3913 15.3227 20.3233L10 17.4082L4.67736 20.3233C4.53205 20.4038 4.3633 20.4307 4.20158 20.4014C3.79377 20.3281 3.51955 19.9253 3.58986 19.5005L4.60705 13.3262L0.301579 8.95362C0.184391 8.83399 0.107048 8.67774 0.0836105 8.50684C0.0203304 8.0796 0.306267 7.68409 0.716423 7.62062Z" fill="#E80F5D"/>
</svg>
