<svg width="18" height="17" viewBox="0 0 18 17" fill="none" xmlns="http://www.w3.org/2000/svg">
<path d="M6.3254 5.65424L6.20834 5.88847L5.94914 5.92565L0.644629 6.68654C0.644451 6.68657 0.644272 6.6866 0.644094 6.68662C0.541912 6.70188 0.490192 6.78888 0.501833 6.86336L0.501863 6.86335L0.502676 6.86896C0.50728 6.90077 0.522661 6.93226 0.549471 6.95833C0.549583 6.95844 0.549694 6.95855 0.549807 6.95866L4.38789 10.652L4.57931 10.8362L4.5338 11.0979L3.62682 16.3144L3.62675 16.3148C3.61294 16.3938 3.66594 16.4803 3.76353 16.4969L3.76424 16.497C3.8027 16.5036 3.84142 16.4969 3.87135 16.4812L3.87359 16.48L8.61958 14.0172L8.84988 13.8977L9.08018 14.0172L13.8262 16.48L13.8269 16.4804C13.8551 16.4951 13.8874 16.5019 13.92 16.4996C13.9526 16.4974 13.9833 16.4861 14.0087 16.4679C14.034 16.4497 14.0528 16.4256 14.0639 16.3988C14.0749 16.372 14.078 16.3431 14.0731 16.315L14.0729 16.3144L13.166 11.0979L13.1204 10.8362L13.3119 10.652L17.1509 6.95776L17.1509 6.95773C17.1825 6.92737 17.1993 6.88728 17.1998 6.84671C17.2004 6.80642 17.1849 6.76629 17.1547 6.73531C17.1283 6.70901 17.0945 6.6921 17.0579 6.68694L17.0567 6.68677L11.7506 5.92565L11.4914 5.88847L11.3743 5.65424L9.00362 0.910497C9.00348 0.910216 9.00334 0.909935 9.00319 0.909655C8.96211 0.829735 8.85827 0.792968 8.77213 0.83494L8.77156 0.835221C8.7383 0.85137 8.71269 0.877301 8.69757 0.907629L8.69735 0.908064L6.3254 5.65424ZM14.5652 16.2288L14.5652 16.2288L14.5652 16.2288Z" stroke="#F0694F"/>
</svg>
