<svg width="18" height="17" viewBox="0 0 18 17" fill="none" xmlns="http://www.w3.org/2000/svg">
<path d="M17.53 6.06628C17.6538 6.19187 17.722 6.36083 17.7197 6.53603C17.7173 6.71124 17.6446 6.87836 17.5175 7.00066L13.6785 10.6949L14.5854 15.9113L0.569511 6.64109C0.569576 6.64115 0.569641 6.64122 0.569706 6.64128L4.40778 10.3346L4.59921 10.5188L4.5537 10.7805L3.64672 15.997L3.64665 15.9974C3.63284 16.0764 3.68584 16.1629 3.78343 16.1795L3.78414 16.1797C3.8226 16.1863 3.86132 16.1795 3.89125 16.1638L3.89348 16.1626L8.63947 13.6998L8.86977 13.5803L9.10007 13.6998L13.8461 16.1626L13.8468 16.163C13.875 16.1777 13.9073 16.1846 13.9399 16.1823C13.9725 16.18 14.0032 16.1687 14.0286 16.1505C14.0539 16.1324 14.0727 16.1082 14.0838 16.0814C14.0948 16.0546 14.0979 16.0257 14.0929 15.9977L14.0928 15.997L13.1858 10.7805L13.1403 10.5188L13.3318 10.3346L17.1708 6.64038L17.1708 6.64035C17.2024 6.60998 17.2192 6.5699 17.2197 6.52932C17.2203 6.48904 17.2048 6.44891 17.1745 6.41793M17.53 6.06628L17.1752 6.41857C17.175 6.41836 17.1748 6.41814 17.1745 6.41793M17.53 6.06628C17.4276 5.96315 17.2939 5.89508 17.1476 5.87445L0.664526 6.36916L5.96904 5.60827L6.22824 5.57109L6.3453 5.33685L8.71725 0.590682L8.71747 0.590247C8.73259 0.559918 8.7582 0.533986 8.79145 0.517838L8.79203 0.517558C8.87818 0.475579 8.98204 0.512364 9.02311 0.592308C9.02325 0.592576 9.02338 0.592844 9.02352 0.593113L11.3942 5.33685L11.5113 5.57109L11.7705 5.60827L17.0766 6.36939L17.0778 6.36956C17.1144 6.37472 17.1482 6.39163 17.1745 6.41793M17.53 6.06628L17.1739 6.41729C17.1741 6.4175 17.1743 6.41771 17.1745 6.41793" stroke="#F0694F"/>
</svg>
