<svg width="18" height="17" viewBox="0 0 18 17" fill="none" xmlns="http://www.w3.org/2000/svg">
<path d="M17.7904 6.06628C17.9142 6.19187 17.9825 6.36083 17.9801 6.53603C17.9778 6.71124 17.905 6.87836 17.7779 7.00066L13.9389 10.6949L14.8459 15.9113L0.829948 6.64109C0.830013 6.64115 0.830078 6.64122 0.830143 6.64128L4.66822 10.3346L4.85964 10.5188L4.81414 10.7805L3.90715 15.997L3.90708 15.9974C3.89327 16.0764 3.94628 16.1629 4.04387 16.1795L4.04457 16.1797C4.08303 16.1863 4.12176 16.1795 4.15168 16.1638L4.15392 16.1626L8.89991 13.6998L9.13021 13.5803L9.36051 13.6998L14.1065 16.1626L14.1073 16.163C14.1355 16.1777 14.1678 16.1846 14.2003 16.1823C14.2329 16.18 14.2636 16.1687 14.289 16.1505C14.3144 16.1324 14.3332 16.1082 14.3442 16.0814C14.3552 16.0546 14.3583 16.0257 14.3534 15.9977L14.3533 15.997L13.4463 10.7805L13.4008 10.5188L13.5922 10.3346L17.4312 6.64038L17.4312 6.64035C17.4628 6.60998 17.4796 6.5699 17.4801 6.52932C17.4807 6.48904 17.4652 6.44891 17.435 6.41793M17.7904 6.06628L17.4356 6.41857C17.4354 6.41836 17.4352 6.41814 17.435 6.41793M17.7904 6.06628C17.688 5.96315 17.5543 5.89508 17.408 5.87445L0.924963 6.36916L6.22948 5.60827L6.48868 5.57109L6.60574 5.33685L8.97769 0.590682L8.9779 0.590247C8.99302 0.559918 9.01864 0.533986 9.05189 0.517838L9.05247 0.517558C9.13862 0.475579 9.24248 0.512364 9.28355 0.592308C9.28368 0.592576 9.28382 0.592844 9.28396 0.593113L11.6547 5.33685L11.7717 5.57109L12.0309 5.60827L17.337 6.36939L17.3382 6.36956C17.3748 6.37472 17.4086 6.39163 17.435 6.41793M17.7904 6.06628L17.4344 6.41729C17.4346 6.4175 17.4348 6.41771 17.435 6.41793" fill="#E80F5D" stroke="#F0694F"/>
</svg>
