<svg width="71" height="72" viewBox="0 0 71 72" fill="none" xmlns="http://www.w3.org/2000/svg">
<g clip-path="url(#clip0_380_50)">
<path d="M30.0123 59.7081C29.2254 59.4566 29.2224 59.3472 29.9472 57.1491C30.669 54.9511 30.3377 52.9128 29.0005 51.3094C27.1752 49.1291 26.2966 47.2683 26.0156 44.9933C25.7789 43.0408 25.699 42.8841 24.9032 42.7332C24.3707 42.6296 23.6311 42.8338 21.8769 43.5645C19.3209 44.6295 18.7114 45.1028 18.1109 46.4636C17.7914 47.1796 17.7559 47.6085 17.9334 48.4368C18.1553 49.4486 19.0517 51.0757 19.3948 51.0786C19.4836 51.0786 19.9746 51.4159 20.4835 51.8241C21.3325 52.5046 21.3917 52.6229 21.1491 53.1791C20.6284 54.3861 19.3889 55.8475 18.8889 55.8475C18.6079 55.8475 17.463 55.0428 16.1969 53.963C13.7237 51.8419 13.6172 51.6259 13.3569 48.1499C13.061 43.9993 14.0787 42.0616 18.6227 38.1655L21.4745 35.719L21.6579 34.2398C21.8443 32.7074 21.581 29.0686 21.1343 27.0599C20.8681 25.8766 20.0042 24.7436 19.1818 24.5158C18.2854 24.2673 17.7618 24.782 17.0755 26.5688C16.3359 28.5036 15.6377 29.1781 14.3538 29.1781C13.5551 29.1781 12.8155 28.6663 12.3007 27.767C11.9309 27.125 11.715 23.2526 11.9369 21.2143C12.0434 20.238 12.0493 19.244 11.9517 19.0103C11.7919 18.6316 10.4133 17.8122 7.15915 16.1644C6.62829 15.9013 6.11626 15.6018 5.62673 15.268C5.16866 14.961 4.68344 14.6966 4.17715 14.4781C2.94057 13.9308 -0.281058 12.0464 0.0206922 12.0464C0.591651 12.0464 3.00861 12.7919 4.29844 13.3628C5.08536 13.7119 5.83678 13.9989 5.9699 13.9989C6.10303 13.9989 7.62065 14.487 9.3424 15.0816C11.0582 15.6792 12.6291 16.1673 12.8332 16.1673C13.3066 16.1673 13.3805 15.7532 13.2297 13.9604C13.1587 13.1469 13.1616 12.4813 13.2356 12.4813C13.3095 12.4813 13.6261 12.6381 13.9397 12.8303C14.8982 13.4161 16.9572 13.777 19.383 13.777C21.6994 13.7829 24.7257 14.2415 25.8795 14.7681C27.5361 15.5195 29.462 17.8743 31.9026 22.1343C33.6007 25.0986 35.4231 26.3529 38.0353 26.3558C39.0914 26.3558 41.9107 25.921 45.7269 25.1725C48.8716 24.5513 53.0252 24.4063 54.6374 24.8678C56.6047 25.4299 59.2081 26.9386 61.3529 28.7551C63.3645 30.4591 63.6781 30.8377 64.9147 33.0979C66.3939 35.7959 68.0209 39.6269 69.4705 43.813C69.6776 44.4106 70.1095 45.4105 70.4349 46.0406C71.3047 47.7209 71.2633 47.8245 69.6806 47.8245C67.9647 47.8245 67.1571 47.5523 66.0329 46.5968C64.9531 45.6797 64.6721 45.1176 62.9799 40.5322C62.1161 38.1773 61.273 36.7662 60.7316 36.7662C60.3648 36.7662 59.6193 39.2867 59.6193 40.5322C59.6193 41.4197 60.1725 42.6089 61.6014 44.8129C63.9325 48.3925 65.1573 53.4571 64.6662 57.4746L64.4591 59.2081L62.903 59.2732C60.4624 59.3738 60.4861 59.4093 60.4861 55.9155C60.4861 52.1969 60.2346 51.3922 58.5927 49.8953C57.9123 49.2741 56.3799 47.4991 55.1936 45.9607C54.0044 44.4224 52.8684 43.1621 52.6672 43.1621C52.1998 43.1621 51.969 44.4283 51.9454 47.1026C51.9276 48.8628 51.8566 49.1616 51.3389 49.706C49.9307 51.1763 48.9426 53.8565 48.3332 57.8532C48.1971 58.7407 48.0818 58.9034 47.5079 59.0306C46.6647 59.22 44.3276 59.2525 44.1265 59.075C43.9519 58.9271 44.2566 56.522 44.9489 52.5963C45.2092 51.1053 45.4962 49.1054 45.582 48.1499C45.7388 46.4518 45.3897 43.2686 44.9785 42.6267C44.8069 42.3604 43.9342 42.3013 39.8546 42.2835C37.1478 42.2746 34.1806 42.1859 33.2576 42.0883L31.5861 41.9108V42.6503C31.5861 43.4491 31.7932 44.1473 33.154 48.0404C33.6333 49.4131 34.3285 51.5017 34.7012 52.685L35.3728 54.8387L34.8048 56.59C34.5276 57.47 34.1834 58.3275 33.7753 59.1549C33.3256 59.9418 33.2724 59.9655 32.0151 59.9536C31.3403 59.949 30.6682 59.8666 30.0123 59.7081Z" fill="white"/>
</g>
<defs>
<clipPath id="clip0_380_50">
<rect width="71" height="71" fill="white" transform="translate(0 0.5)"/>
</clipPath>
</defs>
</svg>
