<svg width="27" height="31" viewBox="0 0 27 31" fill="none" xmlns="http://www.w3.org/2000/svg">
<path d="M8.28946 30.8864C7.26765 30.831 6.30611 30.3854 5.60333 29.6416C4.76255 28.8327 4.01226 27.9348 3.36571 26.9636C2.35573 25.5174 1.55739 23.9344 0.994832 22.2625C0.358163 20.4638 0.0232301 18.5723 0.00358177 16.6644C-0.0458793 14.7923 0.417729 12.9424 1.34421 11.3149C2.02276 10.1418 2.99064 9.16216 4.15546 8.4695C5.3074 7.77979 6.62191 7.40854 7.96446 7.39375C8.97653 7.45363 9.97109 7.68496 10.9057 8.07787C11.6516 8.40612 12.4348 8.63688 13.2392 8.76363C14.1265 8.57775 14.9935 8.30562 15.8278 7.95113C16.8153 7.56557 17.8608 7.34965 18.9202 7.3125C19.0616 7.3125 19.2013 7.3125 19.3362 7.32875C21.66 7.39537 23.8212 8.53613 25.1862 10.4163C24.1209 10.986 23.2345 11.8401 22.6254 12.8834C22.0164 13.9268 21.7086 15.1186 21.7363 16.3264C21.7257 17.2499 21.9109 18.1652 22.2798 19.012C22.6487 19.8587 23.1929 20.6176 23.8765 21.2388C24.4988 21.8315 25.2233 22.3066 26.015 22.6411C25.8525 23.1286 25.6656 23.5999 25.4673 24.0744C25.0172 25.1229 24.4619 26.1231 23.8098 27.0595C23.1933 27.9976 22.4756 28.8651 21.6697 29.6465C20.9346 30.3759 19.9547 30.8062 18.9202 30.8539C18.0433 30.815 17.1818 30.6093 16.382 30.2478C15.5194 29.872 14.5925 29.6662 13.652 29.6416C12.6849 29.6607 11.7305 29.8654 10.8407 30.2445C10.0722 30.5913 9.25105 30.8071 8.41133 30.8831L8.28946 30.8864ZM13.4082 7.3125C13.2863 7.3125 13.1645 7.3125 13.0426 7.29787C13.0169 7.10445 13.0034 6.90961 13.002 6.7145C13.0551 5.09134 13.6894 3.54126 14.7895 2.3465C15.4047 1.65986 16.1504 1.1025 16.9832 0.706875C17.7593 0.307376 18.6073 0.0670419 19.4776 0C19.502 0.212875 19.502 0.420875 19.502 0.619125C19.4791 2.21677 18.8788 3.75216 17.812 4.94162C17.2954 5.63423 16.6335 6.20538 15.8728 6.61496C15.112 7.02454 14.2708 7.26263 13.4082 7.3125Z" fill="white"/>
</svg>
