<svg width="88" height="25" viewBox="0 0 88 25" fill="none" xmlns="http://www.w3.org/2000/svg">
<rect x="0.5" y="0.5" width="87" height="24" rx="12" stroke="#F0694F"/>
<path d="M17.3125 5C15.8662 5 14.4524 5.42887 13.2499 6.23238C12.0474 7.03589 11.1101 8.17794 10.5566 9.51413C10.0032 10.8503 9.85836 12.3206 10.1405 13.7391C10.4227 15.1576 11.1191 16.4605 12.1418 17.4832C13.1645 18.5059 14.4674 19.2023 15.8859 19.4845C17.3044 19.7666 18.7747 19.6218 20.1109 19.0684C21.4471 18.5149 22.5891 17.5776 23.3926 16.3751C24.1961 15.1726 24.625 13.7588 24.625 12.3125C24.623 10.3737 23.8519 8.51496 22.481 7.14404C21.11 5.77313 19.2513 5.00205 17.3125 5ZM19.9605 14.1645C20.0127 14.2168 20.0542 14.2788 20.0825 14.3471C20.1108 14.4154 20.1253 14.4886 20.1253 14.5625C20.1253 14.6364 20.1108 14.7096 20.0825 14.7779C20.0542 14.8462 20.0127 14.9082 19.9605 14.9605C19.9082 15.0127 19.8462 15.0542 19.7779 15.0825C19.7096 15.1108 19.6364 15.1253 19.5625 15.1253C19.4886 15.1253 19.4154 15.1108 19.3471 15.0825C19.2788 15.0542 19.2168 15.0127 19.1645 14.9605L17.3125 13.1077L15.4605 14.9605C15.4082 15.0127 15.3462 15.0542 15.2779 15.0825C15.2096 15.1108 15.1364 15.1253 15.0625 15.1253C14.9886 15.1253 14.9154 15.1108 14.8471 15.0825C14.7788 15.0542 14.7168 15.0127 14.6645 14.9605C14.6123 14.9082 14.5708 14.8462 14.5425 14.7779C14.5142 14.7096 14.4997 14.6364 14.4997 14.5625C14.4997 14.4886 14.5142 14.4154 14.5425 14.3471C14.5708 14.2788 14.6123 14.2168 14.6645 14.1645L16.5173 12.3125L14.6645 10.4605C14.559 10.3549 14.4997 10.2118 14.4997 10.0625C14.4997 9.91323 14.559 9.77008 14.6645 9.66453C14.7701 9.55898 14.9132 9.49969 15.0625 9.49969C15.2118 9.49969 15.3549 9.55898 15.4605 9.66453L17.3125 11.5173L19.1645 9.66453C19.2168 9.61227 19.2788 9.57081 19.3471 9.54253C19.4154 9.51424 19.4886 9.49969 19.5625 9.49969C19.6364 9.49969 19.7096 9.51424 19.7779 9.54253C19.8462 9.57081 19.9082 9.61227 19.9605 9.66453C20.0127 9.71679 20.0542 9.77884 20.0825 9.84712C20.1108 9.9154 20.1253 9.98859 20.1253 10.0625C20.1253 10.1364 20.1108 10.2096 20.0825 10.2779C20.0542 10.3462 20.0127 10.4082 19.9605 10.4605L18.1077 12.3125L19.9605 14.1645Z" fill="#F0694F"/>
<path d="M52.8352 10.4545V11.3068H49.3068V10.4545H52.8352ZM50.3636 17V9.55114C50.3636 9.17614 50.4517 8.86364 50.6278 8.61364C50.804 8.36364 51.0327 8.17614 51.3139 8.05114C51.5952 7.92614 51.892 7.86364 52.2045 7.86364C52.4517 7.86364 52.6534 7.88352 52.8097 7.9233C52.9659 7.96307 53.0824 8 53.1591 8.03409L52.8693 8.90341C52.8182 8.88636 52.7472 8.86506 52.6562 8.83949C52.5682 8.81392 52.4517 8.80114 52.3068 8.80114C51.9744 8.80114 51.7344 8.88494 51.5866 9.05256C51.4418 9.22017 51.3693 9.46591 51.3693 9.78977V17H50.3636ZM56.6342 17.1364C56.0433 17.1364 55.5249 16.9957 55.0788 16.7145C54.6357 16.4332 54.2891 16.0398 54.0391 15.5341C53.7919 15.0284 53.6683 14.4375 53.6683 13.7614C53.6683 13.0795 53.7919 12.4844 54.0391 11.9759C54.2891 11.4673 54.6357 11.0724 55.0788 10.7912C55.5249 10.5099 56.0433 10.3693 56.6342 10.3693C57.2251 10.3693 57.7422 10.5099 58.1854 10.7912C58.6314 11.0724 58.978 11.4673 59.2251 11.9759C59.4751 12.4844 59.6001 13.0795 59.6001 13.7614C59.6001 14.4375 59.4751 15.0284 59.2251 15.5341C58.978 16.0398 58.6314 16.4332 58.1854 16.7145C57.7422 16.9957 57.2251 17.1364 56.6342 17.1364ZM56.6342 16.233C57.0831 16.233 57.4524 16.1179 57.7422 15.8878C58.032 15.6577 58.2464 15.3551 58.3857 14.9801C58.5249 14.6051 58.5945 14.1989 58.5945 13.7614C58.5945 13.3239 58.5249 12.9162 58.3857 12.5384C58.2464 12.1605 58.032 11.8551 57.7422 11.6222C57.4524 11.3892 57.0831 11.2727 56.6342 11.2727C56.1854 11.2727 55.8161 11.3892 55.5263 11.6222C55.2365 11.8551 55.022 12.1605 54.8828 12.5384C54.7436 12.9162 54.674 13.3239 54.674 13.7614C54.674 14.1989 54.7436 14.6051 54.8828 14.9801C55.022 15.3551 55.2365 15.6577 55.5263 15.8878C55.8161 16.1179 56.1854 16.233 56.6342 16.233ZM63.7944 17.1364C63.2035 17.1364 62.685 16.9957 62.239 16.7145C61.7958 16.4332 61.4492 16.0398 61.1992 15.5341C60.9521 15.0284 60.8285 14.4375 60.8285 13.7614C60.8285 13.0795 60.9521 12.4844 61.1992 11.9759C61.4492 11.4673 61.7958 11.0724 62.239 10.7912C62.685 10.5099 63.2035 10.3693 63.7944 10.3693C64.3853 10.3693 64.9023 10.5099 65.3455 10.7912C65.7915 11.0724 66.1381 11.4673 66.3853 11.9759C66.6353 12.4844 66.7603 13.0795 66.7603 13.7614C66.7603 14.4375 66.6353 15.0284 66.3853 15.5341C66.1381 16.0398 65.7915 16.4332 65.3455 16.7145C64.9023 16.9957 64.3853 17.1364 63.7944 17.1364ZM63.7944 16.233C64.2433 16.233 64.6126 16.1179 64.9023 15.8878C65.1921 15.6577 65.4066 15.3551 65.5458 14.9801C65.685 14.6051 65.7546 14.1989 65.7546 13.7614C65.7546 13.3239 65.685 12.9162 65.5458 12.5384C65.4066 12.1605 65.1921 11.8551 64.9023 11.6222C64.6126 11.3892 64.2433 11.2727 63.7944 11.2727C63.3455 11.2727 62.9762 11.3892 62.6864 11.6222C62.3967 11.8551 62.1822 12.1605 62.043 12.5384C61.9038 12.9162 61.8342 13.3239 61.8342 13.7614C61.8342 14.1989 61.9038 14.6051 62.043 14.9801C62.1822 15.3551 62.3967 15.6577 62.6864 15.8878C62.9762 16.1179 63.3455 16.233 63.7944 16.233ZM70.767 17.1364C70.2216 17.1364 69.7401 16.9986 69.3224 16.723C68.9048 16.4446 68.5781 16.0526 68.3423 15.5469C68.1065 15.0384 67.9886 14.4375 67.9886 13.7443C67.9886 13.0568 68.1065 12.4602 68.3423 11.9545C68.5781 11.4489 68.9063 11.0582 69.3267 10.7827C69.7472 10.5071 70.233 10.3693 70.7841 10.3693C71.2102 10.3693 71.5469 10.4403 71.794 10.5824C72.044 10.7216 72.2344 10.8807 72.3651 11.0597C72.4986 11.2358 72.6023 11.3807 72.6761 11.4943H72.7614V8.27273H73.767V17H72.7955V15.9943H72.6761C72.6023 16.1136 72.4972 16.2642 72.3608 16.446C72.2244 16.625 72.0298 16.7855 71.777 16.9276C71.5241 17.0668 71.1875 17.1364 70.767 17.1364ZM70.9034 16.233C71.3068 16.233 71.6477 16.1278 71.9261 15.9176C72.2045 15.7045 72.4162 15.4105 72.5611 15.0355C72.706 14.6577 72.7784 14.2216 72.7784 13.7273C72.7784 13.2386 72.7074 12.8111 72.5653 12.4446C72.4233 12.0753 72.2131 11.7884 71.9347 11.5838C71.6563 11.3764 71.3125 11.2727 70.9034 11.2727C70.4773 11.2727 70.1222 11.3821 69.8381 11.6009C69.5568 11.8168 69.3452 12.1108 69.2031 12.483C69.0639 12.8523 68.9943 13.267 68.9943 13.7273C68.9943 14.1932 69.0653 14.6165 69.2074 14.9972C69.3523 15.375 69.5653 15.6761 69.8466 15.9006C70.1307 16.1222 70.483 16.233 70.9034 16.233Z" fill="#F0694F"/>
<path d="M43 6C43.1633 6.00002 43.3209 6.05997 43.4429 6.16848C43.5649 6.27698 43.6429 6.4265 43.662 6.58867L43.6667 6.66667V17.3333C43.6665 17.5033 43.6014 17.6667 43.4848 17.7902C43.3681 17.9138 43.2087 17.9882 43.0391 17.9981C42.8695 18.0081 42.7024 17.9529 42.5721 17.8438C42.4418 17.7348 42.3581 17.5801 42.338 17.4113L42.3333 17.3333V14H41.6667C41.5034 14 41.3458 13.94 41.2238 13.8315C41.1017 13.723 41.0238 13.5735 41.0047 13.4113L41 13.3333V9.33333C41 7.86 42 6 43 6ZM39 6C39.1633 6.00002 39.3209 6.05997 39.4429 6.16848C39.5649 6.27698 39.6429 6.4265 39.662 6.58867L39.6667 6.66667V10C39.6666 10.5912 39.4701 11.1657 39.1081 11.6332C38.7461 12.1007 38.2391 12.4346 37.6667 12.5827V17.3333C37.6665 17.5033 37.6014 17.6667 37.4848 17.7902C37.3681 17.9138 37.2087 17.9882 37.0391 17.9981C36.8695 18.0081 36.7024 17.9529 36.5721 17.8438C36.4418 17.7348 36.3581 17.5801 36.338 17.4113L36.3333 17.3333V12.5827C35.7836 12.4406 35.2936 12.1268 34.9345 11.687C34.5754 11.2472 34.366 10.7043 34.3367 10.1373L34.3333 10V6.66667C34.3335 6.49675 34.3986 6.33331 34.5152 6.20975C34.6319 6.0862 34.7913 6.01184 34.9609 6.00189C35.1306 5.99193 35.2976 6.04712 35.4279 6.15618C35.5582 6.26524 35.6419 6.41994 35.662 6.58867L35.6667 6.66667V10C35.6667 10.234 35.7283 10.464 35.8453 10.6666C35.9623 10.8693 36.1307 11.0376 36.3333 11.1547V6.66667C36.3335 6.49675 36.3986 6.33331 36.5152 6.20975C36.6319 6.0862 36.7913 6.01184 36.9609 6.00189C37.1306 5.99193 37.2976 6.04712 37.4279 6.15618C37.5582 6.26524 37.6419 6.41994 37.662 6.58867L37.6667 6.66667L37.6673 11.1547C37.8534 11.0471 38.0107 10.8962 38.1258 10.7148C38.241 10.5334 38.3106 10.3268 38.3287 10.1127L38.3333 10V6.66667C38.3333 6.48986 38.4036 6.32029 38.5286 6.19526C38.6536 6.07024 38.8232 6 39 6Z" fill="#F0694F"/>
</svg>
