<svg width="82" height="25" viewBox="0 0 82 25" fill="none" xmlns="http://www.w3.org/2000/svg">
<rect x="0.5" y="0.5" width="81" height="24" rx="12" stroke="#F0694F"/>
<path d="M54.8466 17.1534C54.4318 17.1534 54.0554 17.0753 53.7173 16.919C53.3793 16.7599 53.1108 16.5312 52.9119 16.233C52.7131 15.9318 52.6136 15.5682 52.6136 15.142C52.6136 14.767 52.6875 14.4631 52.8352 14.2301C52.983 13.9943 53.1804 13.8097 53.4276 13.6761C53.6747 13.5426 53.9474 13.4432 54.2457 13.3778C54.5469 13.3097 54.8494 13.2557 55.1534 13.2159C55.5511 13.1648 55.8736 13.1264 56.1207 13.1009C56.3707 13.0724 56.5526 13.0256 56.6662 12.9602C56.7827 12.8949 56.8409 12.7812 56.8409 12.6193V12.5852C56.8409 12.1648 56.7259 11.8381 56.4957 11.6051C56.2685 11.3722 55.9233 11.2557 55.4602 11.2557C54.9801 11.2557 54.6037 11.3608 54.331 11.571C54.0582 11.7812 53.8665 12.0057 53.7557 12.2443L52.8011 11.9034C52.9716 11.5057 53.1989 11.196 53.483 10.9744C53.7699 10.75 54.0824 10.5937 54.4205 10.5057C54.7614 10.4148 55.0966 10.3693 55.4261 10.3693C55.6364 10.3693 55.8778 10.3949 56.1506 10.446C56.4261 10.4943 56.6918 10.5952 56.9474 10.7486C57.206 10.902 57.4205 11.1335 57.5909 11.4432C57.7614 11.7528 57.8466 12.1676 57.8466 12.6875V17H56.8409V16.1136H56.7898C56.7216 16.2557 56.608 16.4077 56.4489 16.5696C56.2898 16.7315 56.0781 16.8693 55.8139 16.983C55.5497 17.0966 55.2273 17.1534 54.8466 17.1534ZM55 16.25C55.3977 16.25 55.733 16.1719 56.0057 16.0156C56.2813 15.8594 56.4886 15.6577 56.6278 15.4105C56.7699 15.1634 56.8409 14.9034 56.8409 14.6307V13.7102C56.7983 13.7614 56.7045 13.8082 56.5597 13.8509C56.4176 13.8906 56.2528 13.9261 56.0653 13.9574C55.8807 13.9858 55.7003 14.0114 55.5241 14.0341C55.3509 14.054 55.2102 14.071 55.1023 14.0852C54.8409 14.1193 54.5966 14.1747 54.3693 14.2514C54.1449 14.3253 53.9631 14.4375 53.8239 14.5881C53.6875 14.7358 53.6193 14.9375 53.6193 15.1932C53.6193 15.5426 53.7486 15.8068 54.0071 15.9858C54.2685 16.1619 54.5994 16.25 55 16.25ZM59.6822 17V10.4545H60.6538V11.4432H60.7219C60.8413 11.1193 61.0572 10.8565 61.3697 10.6548C61.6822 10.4531 62.0344 10.3523 62.4265 10.3523C62.5004 10.3523 62.5927 10.3537 62.7035 10.3565C62.8143 10.3594 62.8981 10.3636 62.9549 10.3693V11.392C62.9208 11.3835 62.8427 11.3707 62.7205 11.3537C62.6012 11.3338 62.4748 11.3239 62.3413 11.3239C62.0231 11.3239 61.739 11.3906 61.489 11.5241C61.2418 11.6548 61.0458 11.8366 60.9009 12.0696C60.7589 12.2997 60.6879 12.5625 60.6879 12.858V17H59.6822ZM67.4038 10.4545V11.3068H64.0117V10.4545H67.4038ZM65.0004 8.88636H66.006V15.125C66.006 15.4091 66.0472 15.6222 66.1296 15.7642C66.2148 15.9034 66.3228 15.9972 66.4535 16.0455C66.587 16.0909 66.7276 16.1136 66.8754 16.1136C66.9862 16.1136 67.0771 16.108 67.1481 16.0966C67.2191 16.0824 67.2759 16.071 67.3185 16.0625L67.5231 16.9659C67.4549 16.9915 67.3597 17.017 67.2376 17.0426C67.1154 17.071 66.9606 17.0852 66.7731 17.0852C66.489 17.0852 66.2106 17.0241 65.9379 16.902C65.668 16.7798 65.4435 16.5938 65.2646 16.3438C65.0884 16.0938 65.0004 15.7784 65.0004 15.3977V8.88636Z" fill="#F0694F"/>
<path d="M38.8948 7C35.2105 7 33 9.93331 33 11.4001C33 12.8669 33.7367 13.9669 35.2105 13.9669C36.6843 13.9669 37.4213 14.3334 37.4213 15.4335C37.4213 16.9 38.5264 18 40.0001 18C44.7898 18 47 15.4335 47 12.8669C46.9997 8.4668 43.3149 7 38.8948 7ZM37.9737 8.4668C38.0948 8.46695 38.2147 8.49078 38.3265 8.53692C38.4384 8.58306 38.5399 8.65061 38.6255 8.73572C38.711 8.82082 38.7788 8.92181 38.825 9.03293C38.8712 9.14404 38.8949 9.2631 38.8948 9.3833C38.8948 9.88989 38.4823 10.3001 37.9737 10.3001C37.465 10.3001 37.0526 9.8896 37.0526 9.3833C37.0525 9.2631 37.0762 9.14404 37.1224 9.03293C37.1686 8.92181 37.2364 8.82082 37.3219 8.73572C37.4074 8.65061 37.509 8.58306 37.6209 8.53692C37.7327 8.49078 37.8526 8.46695 37.9737 8.4668ZM40.9206 8.4668C41.0417 8.46695 41.1616 8.49078 41.2735 8.53692C41.3853 8.58306 41.4869 8.65061 41.5724 8.73572C41.6579 8.82082 41.7257 8.92181 41.7719 9.03293C41.8181 9.14404 41.8418 9.2631 41.8417 9.3833C41.8419 9.50353 41.8182 9.62262 41.772 9.73376C41.7258 9.84491 41.658 9.94593 41.5725 10.0311C41.487 10.1162 41.3854 10.1838 41.2735 10.2299C41.1617 10.2761 41.0418 10.2999 40.9206 10.3001C40.7995 10.2999 40.6796 10.276 40.5678 10.2299C40.456 10.1837 40.3544 10.1161 40.2689 10.031C40.1834 9.94584 40.1157 9.84482 40.0695 9.7337C40.0233 9.62257 39.9997 9.5035 39.9999 9.3833C39.9995 9.14059 40.0964 8.90769 40.269 8.73582C40.4417 8.56395 40.6761 8.46719 40.9206 8.4668ZM43.8681 9.93331C43.9893 9.93343 44.1093 9.95724 44.2211 10.0034C44.333 10.0495 44.4347 10.1171 44.5202 10.2022C44.6058 10.2874 44.6736 10.3884 44.7198 10.4996C44.766 10.6107 44.7897 10.7298 44.7895 10.8501C44.7897 10.9703 44.766 11.0894 44.7198 11.2006C44.6736 11.3117 44.6058 11.4128 44.5202 11.4979C44.4346 11.583 44.333 11.6505 44.2211 11.6966C44.1092 11.7428 43.9893 11.7665 43.8681 11.7666C43.747 11.7665 43.6271 11.7427 43.5153 11.6966C43.4035 11.6504 43.3019 11.5829 43.2164 11.4978C43.1309 11.4126 43.0631 11.3116 43.0169 11.2005C42.9708 11.0894 42.9471 10.9703 42.9474 10.8501C42.9471 10.7299 42.9708 10.6108 43.0169 10.4997C43.0631 10.3885 43.1309 10.2875 43.2164 10.2023C43.3019 10.1172 43.4035 10.0496 43.5153 10.0035C43.6271 9.9573 43.747 9.93347 43.8681 9.93331ZM35.3948 10.6669C35.5159 10.667 35.6358 10.6908 35.7476 10.7369C35.8594 10.783 35.961 10.8505 36.0465 10.9356C36.132 11.0207 36.1998 11.1217 36.2459 11.2328C36.2921 11.3439 36.3158 11.4629 36.3156 11.5831C36.3156 12.0897 35.9032 12.4999 35.3948 12.4999C34.8865 12.4999 34.4738 12.0894 34.4738 11.5831C34.4735 11.3404 34.5704 11.1075 34.7432 10.9357C34.9159 10.7639 35.1503 10.6672 35.3948 10.6669ZM39.9999 14.3334C40.6103 14.3334 41.105 14.8255 41.105 15.4337C41.105 16.0411 40.6103 16.5335 39.9999 16.5335C39.3894 16.5335 38.8948 16.0411 38.8948 15.4337C38.8945 15.2895 38.9229 15.1466 38.9783 15.0132C39.0337 14.8798 39.115 14.7585 39.2176 14.6563C39.3202 14.5542 39.4421 14.473 39.5764 14.4176C39.7106 14.3622 39.8545 14.3336 39.9999 14.3334Z" fill="#F0694F"/>
<path d="M19.3125 5C17.8662 5 16.4524 5.42887 15.2499 6.23238C14.0474 7.03589 13.1101 8.17794 12.5566 9.51413C12.0032 10.8503 11.8584 12.3206 12.1405 13.7391C12.4227 15.1576 13.1191 16.4605 14.1418 17.4832C15.1645 18.5059 16.4674 19.2023 17.8859 19.4845C19.3044 19.7666 20.7747 19.6218 22.1109 19.0684C23.4471 18.5149 24.5891 17.5776 25.3926 16.3751C26.1961 15.1726 26.625 13.7588 26.625 12.3125C26.623 10.3737 25.8519 8.51496 24.481 7.14404C23.11 5.77313 21.2513 5.00205 19.3125 5ZM21.9605 14.1645C22.0127 14.2168 22.0542 14.2788 22.0825 14.3471C22.1108 14.4154 22.1253 14.4886 22.1253 14.5625C22.1253 14.6364 22.1108 14.7096 22.0825 14.7779C22.0542 14.8462 22.0127 14.9082 21.9605 14.9605C21.9082 15.0127 21.8462 15.0542 21.7779 15.0825C21.7096 15.1108 21.6364 15.1253 21.5625 15.1253C21.4886 15.1253 21.4154 15.1108 21.3471 15.0825C21.2788 15.0542 21.2168 15.0127 21.1645 14.9605L19.3125 13.1077L17.4605 14.9605C17.4082 15.0127 17.3462 15.0542 17.2779 15.0825C17.2096 15.1108 17.1364 15.1253 17.0625 15.1253C16.9886 15.1253 16.9154 15.1108 16.8471 15.0825C16.7788 15.0542 16.7168 15.0127 16.6645 14.9605C16.6123 14.9082 16.5708 14.8462 16.5425 14.7779C16.5142 14.7096 16.4997 14.6364 16.4997 14.5625C16.4997 14.4886 16.5142 14.4154 16.5425 14.3471C16.5708 14.2788 16.6123 14.2168 16.6645 14.1645L18.5173 12.3125L16.6645 10.4605C16.559 10.3549 16.4997 10.2118 16.4997 10.0625C16.4997 9.91323 16.559 9.77008 16.6645 9.66453C16.7701 9.55898 16.9132 9.49969 17.0625 9.49969C17.2118 9.49969 17.3549 9.55898 17.4605 9.66453L19.3125 11.5173L21.1645 9.66453C21.2168 9.61227 21.2788 9.57081 21.3471 9.54253C21.4154 9.51424 21.4886 9.49969 21.5625 9.49969C21.6364 9.49969 21.7096 9.51424 21.7779 9.54253C21.8462 9.57081 21.9082 9.61227 21.9605 9.66453C22.0127 9.71679 22.0542 9.77884 22.0825 9.84712C22.1108 9.9154 22.1253 9.98859 22.1253 10.0625C22.1253 10.1364 22.1108 10.2096 22.0825 10.2779C22.0542 10.3462 22.0127 10.4082 21.9605 10.4605L20.1077 12.3125L21.9605 14.1645Z" fill="#F0694F"/>
</svg>
