<svg width="202" height="78" viewBox="0 0 202 78" fill="none" xmlns="http://www.w3.org/2000/svg">
<g clip-path="url(#clip0_308_35)">
<g clip-path="url(#clip1_308_35)">
<path d="M35.4561 28.903C35.4561 32.6429 34.7399 35.8455 33.3147 38.5252C31.8822 41.2049 29.8602 43.2528 27.2338 44.6616C24.6074 46.0705 21.5035 46.7821 17.9221 46.7821C14.3406 46.7821 11.1397 46.0632 8.4462 44.6326C5.76013 43.2019 3.67843 41.2194 2.20855 38.685C0.73867 36.1505 0 33.2675 0 30.0286C0 26.7897 0.701363 23.9139 2.11155 21.4013C3.52174 18.8886 5.41691 16.9061 7.80453 15.4536C10.1921 14.0012 12.8633 13.275 15.8031 13.275C17.7206 13.275 19.4964 13.58 21.1155 14.1755C22.7346 14.7783 24.0776 15.6207 25.1446 16.6955V0.936805C25.8684 0.646322 26.6667 0.421199 27.5472 0.254172C28.4201 0.0871446 29.2633 0.00726199 30.0765 0.00726199C31.7852 0.00726199 33.1058 0.377627 34.046 1.12562C34.9861 1.87361 35.4561 2.97744 35.4561 4.42985V28.903ZM12.6096 24.4513C11.2442 25.8456 10.5578 27.6829 10.5578 29.9632C10.5578 32.2435 11.2367 34.0881 12.6096 35.4751C13.975 36.8694 15.7434 37.5593 17.9221 37.5593C20.1008 37.5593 21.8691 36.8622 23.2345 35.4751C24.5999 34.0808 25.2864 32.2435 25.2864 29.9632C25.2864 27.6829 24.5999 25.8456 23.2345 24.4513C21.8691 23.057 20.1008 22.3671 17.9221 22.3671C15.7434 22.3671 13.975 23.0643 12.6096 24.4513Z" fill="white"/>
<path d="M78.9854 4.42259C78.9854 2.97018 79.4555 1.86635 80.3956 1.11836C81.3357 0.370365 82.6564 0 84.365 0C85.2156 0 86.0736 0.0871446 86.9242 0.24691C87.7748 0.413937 88.5657 0.63906 89.2895 0.929543V24.7345L98.5042 17.2619C99.9144 16.1 101.145 15.2866 102.22 14.8291C103.287 14.3716 104.414 14.1465 105.615 14.1465C108.599 14.1465 110.778 15.2866 112.143 17.5742C110.994 18.7361 109.189 20.3265 106.734 22.3381C104.279 24.3497 101.556 26.4847 98.5713 28.7214C101.22 31.0453 103.906 33.725 106.637 36.7605C109.368 39.7888 111.8 42.8461 113.934 45.918H101.198C98.7653 42.6791 94.7959 38.4816 89.2895 33.3328V45.918H78.9854V4.42259Z" fill="white"/>
<path d="M132.558 46.7821C129.14 46.7821 126.148 46.0777 123.567 44.6616C120.985 43.2528 118.971 41.2848 117.516 38.7721C116.068 36.2594 115.337 33.3401 115.337 30.0213C115.337 26.7026 116.09 23.8413 117.613 21.3286C119.127 18.816 121.209 16.8407 123.85 15.4101C126.492 13.9794 129.506 13.2605 132.878 13.2605C135.691 13.2605 138.213 13.7398 140.429 14.6911C142.645 15.6497 144.399 16.9569 145.682 18.6126C146.965 20.2756 147.6 22.1638 147.6 24.2843C147.6 27.7338 146.204 30.2464 143.406 31.8223C140.608 33.3982 136.102 34.1897 129.872 34.1897C129.058 34.1897 128.379 34.1825 127.82 34.1607C127.268 34.1389 126.753 34.1099 126.283 34.0663C126.536 35.3517 127.432 36.3901 128.969 37.1817C130.506 37.9733 132.446 38.3654 134.796 38.3654C135.647 38.3654 136.631 38.271 137.743 38.0822C138.855 37.8934 139.907 37.6465 140.914 37.3342C141.914 37.0219 142.653 36.7242 143.123 36.4337L146.704 43.4125C145.719 44.0371 144.436 44.6035 142.832 45.1264C141.228 45.6493 139.534 46.0487 137.743 46.3392C135.952 46.6296 134.221 46.7749 132.558 46.7749V46.7821ZM132.811 20.9873C130.849 20.9873 129.193 21.6191 127.85 22.89C126.506 24.1608 125.835 25.7658 125.835 27.7193C126.178 27.7628 126.529 27.7773 126.894 27.7773H127.887C131.386 27.7773 133.893 27.4796 135.408 26.8769C136.922 26.2741 137.676 25.3954 137.676 24.2262C137.676 23.2749 137.228 22.4906 136.333 21.8878C135.438 21.2851 134.266 20.9873 132.811 20.9873Z" fill="white"/>
<path d="M168.461 46.7821C165.044 46.7821 162.052 46.0777 159.471 44.6616C156.889 43.2528 154.874 41.2848 153.419 38.7721C151.972 36.2594 151.241 33.3401 151.241 30.0213C151.241 26.7026 151.994 23.8413 153.509 21.3286C155.024 18.816 157.105 16.8407 159.747 15.4101C162.388 13.9794 165.402 13.2605 168.775 13.2605C171.588 13.2605 174.11 13.7398 176.326 14.6911C178.542 15.6497 180.295 16.9569 181.578 18.6126C182.862 20.2756 183.496 22.1638 183.496 24.2843C183.496 27.7338 182.101 30.2464 179.303 31.8223C176.505 33.3982 171.998 34.1897 165.768 34.1897C164.955 34.1897 164.276 34.1825 163.716 34.1607C163.164 34.1389 162.649 34.1099 162.179 34.0663C162.433 35.3517 163.328 36.3901 164.865 37.1817C166.402 37.9733 168.342 38.3654 170.692 38.3654C171.543 38.3654 172.528 38.271 173.64 38.0822C174.751 37.8934 175.803 37.6465 176.811 37.3342C177.81 37.0219 178.549 36.7242 179.019 36.4337L182.601 43.4125C181.616 44.0371 180.332 44.6035 178.728 45.1264C177.124 45.6493 175.43 46.0487 173.64 46.3392C171.849 46.6296 170.118 46.7749 168.454 46.7749L168.461 46.7821ZM168.715 20.9873C166.753 20.9873 165.096 21.6191 163.753 22.89C162.41 24.1608 161.739 25.7658 161.739 27.7193C162.082 27.7628 162.433 27.7773 162.798 27.7773H163.791C167.29 27.7773 169.797 27.4796 171.312 26.8769C172.826 26.2741 173.58 25.3954 173.58 24.2262C173.58 23.2749 173.132 22.4906 172.237 21.8878C171.341 21.2851 170.17 20.9873 168.715 20.9873Z" fill="white"/>
<path d="M191.539 45.199C190.323 44.0153 189.711 42.5919 189.711 40.9289C189.711 39.2659 190.323 37.8426 191.539 36.6588C192.755 35.4751 194.195 34.8869 195.859 34.8869C197.523 34.8869 198.963 35.4751 200.179 36.6588C201.396 37.8426 202 39.2659 202 40.9289C202 42.5919 201.396 44.0153 200.179 45.199C198.963 46.3827 197.523 46.971 195.859 46.971C194.195 46.971 192.755 46.3827 191.539 45.199Z" fill="white"/>
<path d="M64.4881 14.7928C62.0706 13.5583 59.3249 12.8684 56.4075 12.8684H56.4C46.7227 12.8684 38.866 20.508 38.866 29.9269C38.866 32.0765 39.2689 34.1171 40.015 36.0053C42.522 42.4322 48.9163 47 56.4 47H73.9341V29.9269C73.9341 23.3402 70.099 17.6323 64.4881 14.7928ZM62.5108 36.2013C61.1454 37.5884 59.3696 38.2855 57.1984 38.2855C57.0939 38.2855 56.9895 38.2855 56.885 38.2783C54.8481 38.2129 53.1842 37.523 51.8859 36.2013C50.5205 34.807 49.8341 32.9697 49.8341 30.6822C49.8341 28.3946 50.5205 26.5646 51.8859 25.1703C53.2514 23.7832 55.0197 23.0861 57.1984 23.0861C59.3771 23.0861 61.1454 23.7832 62.5108 25.1703C63.2868 25.9618 63.8464 26.9059 64.1822 27.9879C64.4284 28.8013 64.5552 29.7018 64.5552 30.6822C64.5552 32.9697 63.8763 34.807 62.5108 36.2013Z" fill="white"/>
</g>
<path d="M28.7346 74V63.0909H30.0556V72.8281H35.1266V74H28.7346ZM37.0016 74V65.8182H38.2587V74H37.0016ZM37.6408 64.4545C37.3958 64.4545 37.1845 64.3711 37.007 64.2042C36.833 64.0373 36.746 63.8366 36.746 63.6023C36.746 63.3679 36.833 63.1673 37.007 63.0004C37.1845 62.8335 37.3958 62.75 37.6408 62.75C37.8859 62.75 38.0954 62.8335 38.2694 63.0004C38.447 63.1673 38.5357 63.3679 38.5357 63.6023C38.5357 63.8366 38.447 64.0373 38.2694 64.2042C38.0954 64.3711 37.8859 64.4545 37.6408 64.4545ZM47.2516 65.8182L44.226 74H42.9476L39.922 65.8182H41.2856L43.5442 72.3381H43.6294L45.8879 65.8182H47.2516ZM52.0483 74.1705C51.2599 74.1705 50.5799 73.9964 50.0081 73.6484C49.4399 73.2969 49.0014 72.8068 48.6924 72.1783C48.387 71.5462 48.2343 70.8111 48.2343 69.973C48.2343 69.1349 48.387 68.3963 48.6924 67.7571C49.0014 67.1143 49.4311 66.6136 49.9815 66.255C50.5355 65.8928 51.1818 65.7116 51.9204 65.7116C52.3465 65.7116 52.7674 65.7827 53.1828 65.9247C53.5983 66.0668 53.9765 66.2976 54.3174 66.6172C54.6583 66.9332 54.93 67.3523 55.1324 67.8743C55.3348 68.3963 55.436 69.0391 55.436 69.8026V70.3352H49.1292V69.2486H54.1576C54.1576 68.7869 54.0653 68.375 53.8806 68.0128C53.6995 67.6506 53.4403 67.3647 53.1029 67.1552C52.7691 66.9457 52.375 66.8409 51.9204 66.8409C51.4197 66.8409 50.9865 66.9652 50.6207 67.2138C50.2585 67.4588 49.9797 67.7784 49.7844 68.1726C49.5891 68.5668 49.4914 68.9893 49.4914 69.4403V70.1648C49.4914 70.7827 49.598 71.3065 49.811 71.7362C50.0277 72.1623 50.3277 72.4872 50.7112 72.7109C51.0948 72.9311 51.5404 73.0412 52.0483 73.0412C52.3785 73.0412 52.6768 72.995 52.9431 72.9027C53.213 72.8068 53.4456 72.6648 53.6409 72.4766C53.8362 72.2848 53.9872 72.0469 54.0937 71.7628L55.3082 72.1037C55.1804 72.5156 54.9655 72.8778 54.6637 73.1903C54.3618 73.4993 53.9889 73.7408 53.5451 73.9148C53.1012 74.0852 52.6022 74.1705 52.0483 74.1705ZM61.5671 74V65.8182H62.8242V74H61.5671ZM62.2063 64.4545C61.9612 64.4545 61.75 64.3711 61.5724 64.2042C61.3984 64.0373 61.3114 63.8366 61.3114 63.6023C61.3114 63.3679 61.3984 63.1673 61.5724 63.0004C61.75 62.8335 61.9612 62.75 62.2063 62.75C62.4513 62.75 62.6608 62.8335 62.8348 63.0004C63.0124 63.1673 63.1012 63.3679 63.1012 63.6023C63.1012 63.8366 63.0124 64.0373 62.8348 64.2042C62.6608 64.3711 62.4513 64.4545 62.2063 64.4545ZM68.6849 65.8182V66.8835H64.4448V65.8182H68.6849ZM65.6806 63.858H66.9377V71.6562C66.9377 72.0114 66.9892 72.2777 67.0922 72.4553C67.1987 72.6293 67.3337 72.7464 67.497 72.8068C67.6639 72.8636 67.8397 72.892 68.0244 72.892C68.1629 72.892 68.2765 72.8849 68.3653 72.8707C68.4541 72.853 68.5251 72.8388 68.5783 72.8281L68.834 73.9574C68.7488 73.9893 68.6298 74.0213 68.4771 74.0533C68.3244 74.0888 68.1309 74.1065 67.8965 74.1065C67.5414 74.1065 67.1934 74.0302 66.8525 73.8775C66.5151 73.7248 66.2346 73.4922 66.0109 73.1797C65.7907 72.8672 65.6806 72.473 65.6806 71.9972V63.858ZM76.0517 63.0909V74H74.7946V63.0909H76.0517ZM78.3542 74V65.8182H79.6113V74H78.3542ZM78.9934 64.4545C78.7484 64.4545 78.5371 64.3711 78.3595 64.2042C78.1855 64.0373 78.0985 63.8366 78.0985 63.6023C78.0985 63.3679 78.1855 63.1673 78.3595 63.0004C78.5371 62.8335 78.7484 62.75 78.9934 62.75C79.2384 62.75 79.4479 62.8335 79.6219 63.0004C79.7995 63.1673 79.8883 63.3679 79.8883 63.6023C79.8883 63.8366 79.7995 64.0373 79.6219 64.2042C79.4479 64.3711 79.2384 64.4545 78.9934 64.4545ZM83.0856 71.017L83.0643 69.4616H83.32L86.8995 65.8182H88.4549L84.641 69.6747H84.5345L83.0856 71.017ZM81.9138 74V63.0909H83.1709V74H81.9138ZM87.1126 74L83.9166 69.9517L84.8115 69.0781L88.7106 74H87.1126ZM93.1664 74.1705C92.3781 74.1705 91.698 73.9964 91.1263 73.6484C90.5581 73.2969 90.1195 72.8068 89.8106 72.1783C89.5052 71.5462 89.3525 70.8111 89.3525 69.973C89.3525 69.1349 89.5052 68.3963 89.8106 67.7571C90.1195 67.1143 90.5492 66.6136 91.0997 66.255C91.6536 65.8928 92.2999 65.7116 93.0386 65.7116C93.4647 65.7116 93.8855 65.7827 94.301 65.9247C94.7165 66.0668 95.0947 66.2976 95.4356 66.6172C95.7765 66.9332 96.0482 67.3523 96.2506 67.8743C96.453 68.3963 96.5542 69.0391 96.5542 69.8026V70.3352H90.2474V69.2486H95.2758C95.2758 68.7869 95.1835 68.375 94.9988 68.0128C94.8177 67.6506 94.5585 67.3647 94.2211 67.1552C93.8873 66.9457 93.4931 66.8409 93.0386 66.8409C92.5379 66.8409 92.1046 66.9652 91.7389 67.2138C91.3766 67.4588 91.0979 67.7784 90.9026 68.1726C90.7073 68.5668 90.6096 68.9893 90.6096 69.4403V70.1648C90.6096 70.7827 90.7161 71.3065 90.9292 71.7362C91.1458 72.1623 91.4459 72.4872 91.8294 72.7109C92.2129 72.9311 92.6586 73.0412 93.1664 73.0412C93.4967 73.0412 93.795 72.995 94.0613 72.9027C94.3312 72.8068 94.5638 72.6648 94.7591 72.4766C94.9544 72.2848 95.1053 72.0469 95.2119 71.7628L96.4264 72.1037C96.2985 72.5156 96.0837 72.8778 95.7818 73.1903C95.48 73.4993 95.1071 73.7408 94.6632 73.9148C94.2193 74.0852 93.7204 74.1705 93.1664 74.1705ZM106.243 65.8182V66.8835H102.003V65.8182H106.243ZM103.239 63.858H104.496V71.6562C104.496 72.0114 104.548 72.2777 104.651 72.4553C104.757 72.6293 104.892 72.7464 105.056 72.8068C105.223 72.8636 105.398 72.892 105.583 72.892C105.721 72.892 105.835 72.8849 105.924 72.8707C106.013 72.853 106.084 72.8388 106.137 72.8281L106.393 73.9574C106.307 73.9893 106.188 74.0213 106.036 74.0533C105.883 74.0888 105.689 74.1065 105.455 74.1065C105.1 74.1065 104.752 74.0302 104.411 73.8775C104.074 73.7248 103.793 73.4922 103.569 73.1797C103.349 72.8672 103.239 72.473 103.239 71.9972V63.858ZM109.567 69.0781V74H108.31V63.0909H109.567V67.0966H109.674C109.866 66.674 110.153 66.3384 110.537 66.0898C110.924 65.8377 111.439 65.7116 112.082 65.7116C112.639 65.7116 113.127 65.8235 113.546 66.0472C113.965 66.2674 114.29 66.6065 114.521 67.0646C114.756 67.5192 114.873 68.098 114.873 68.8011V74H113.616V68.8864C113.616 68.2365 113.447 67.734 113.11 67.3789C112.776 67.0202 112.312 66.8409 111.719 66.8409C111.307 66.8409 110.938 66.9279 110.611 67.1019C110.288 67.2759 110.033 67.5298 109.844 67.8636C109.66 68.1974 109.567 68.6023 109.567 69.0781ZM120.603 74.1705C119.815 74.1705 119.135 73.9964 118.563 73.6484C117.995 73.2969 117.556 72.8068 117.247 72.1783C116.942 71.5462 116.789 70.8111 116.789 69.973C116.789 69.1349 116.942 68.3963 117.247 67.7571C117.556 67.1143 117.986 66.6136 118.536 66.255C119.09 65.8928 119.736 65.7116 120.475 65.7116C120.901 65.7116 121.322 65.7827 121.738 65.9247C122.153 66.0668 122.531 66.2976 122.872 66.6172C123.213 66.9332 123.485 67.3523 123.687 67.8743C123.89 68.3963 123.991 69.0391 123.991 69.8026V70.3352H117.684V69.2486H122.712C122.712 68.7869 122.62 68.375 122.435 68.0128C122.254 67.6506 121.995 67.3647 121.658 67.1552C121.324 66.9457 120.93 66.8409 120.475 66.8409C119.974 66.8409 119.541 66.9652 119.175 67.2138C118.813 67.4588 118.534 67.7784 118.339 68.1726C118.144 68.5668 118.046 68.9893 118.046 69.4403V70.1648C118.046 70.7827 118.153 71.3065 118.366 71.7362C118.582 72.1623 118.882 72.4872 119.266 72.7109C119.649 72.9311 120.095 73.0412 120.603 73.0412C120.933 73.0412 121.231 72.995 121.498 72.9027C121.768 72.8068 122 72.6648 122.196 72.4766C122.391 72.2848 122.542 72.0469 122.648 71.7628L123.863 72.1037C123.735 72.5156 123.52 72.8778 123.218 73.1903C122.917 73.4993 122.544 73.7408 122.1 73.9148C121.656 74.0852 121.157 74.1705 120.603 74.1705ZM130.292 74V63.0909H131.613V72.8281H136.684V74H130.292ZM141.883 74.1705C141.144 74.1705 140.496 73.9947 139.939 73.6431C139.385 73.2915 138.952 72.7997 138.639 72.1676C138.33 71.5355 138.176 70.7969 138.176 69.9517C138.176 69.0994 138.33 68.3555 138.639 67.7198C138.952 67.0842 139.385 66.5906 139.939 66.239C140.496 65.8874 141.144 65.7116 141.883 65.7116C142.622 65.7116 143.268 65.8874 143.822 66.239C144.38 66.5906 144.813 67.0842 145.122 67.7198C145.434 68.3555 145.591 69.0994 145.591 69.9517C145.591 70.7969 145.434 71.5355 145.122 72.1676C144.813 72.7997 144.38 73.2915 143.822 73.6431C143.268 73.9947 142.622 74.1705 141.883 74.1705ZM141.883 73.0412C142.444 73.0412 142.906 72.8974 143.268 72.6097C143.63 72.3221 143.898 71.9439 144.072 71.4751C144.246 71.0064 144.333 70.4986 144.333 69.9517C144.333 69.4048 144.246 68.8952 144.072 68.4229C143.898 67.9506 143.63 67.5689 143.268 67.2777C142.906 66.9865 142.444 66.8409 141.883 66.8409C141.322 66.8409 140.86 66.9865 140.498 67.2777C140.136 67.5689 139.868 67.9506 139.694 68.4229C139.52 68.8952 139.433 69.4048 139.433 69.9517C139.433 70.4986 139.52 71.0064 139.694 71.4751C139.868 71.9439 140.136 72.3221 140.498 72.6097C140.86 72.8974 141.322 73.0412 141.883 73.0412ZM150.833 74.1705C150.066 74.1705 149.406 73.9893 148.852 73.6271C148.298 73.2649 147.872 72.766 147.573 72.1303C147.275 71.4947 147.126 70.7685 147.126 69.9517C147.126 69.1207 147.279 68.3874 147.584 67.7518C147.893 67.1126 148.323 66.6136 148.873 66.255C149.427 65.8928 150.073 65.7116 150.812 65.7116C151.387 65.7116 151.906 65.8182 152.367 66.0312C152.829 66.2443 153.207 66.5426 153.502 66.9261C153.797 67.3097 153.98 67.7571 154.051 68.2685H152.794C152.698 67.8956 152.485 67.5653 152.154 67.2777C151.828 66.9865 151.387 66.8409 150.833 66.8409C150.343 66.8409 149.914 66.9687 149.544 67.2244C149.178 67.4766 148.893 67.8335 148.687 68.2951C148.484 68.7532 148.383 69.2912 148.383 69.9091C148.383 70.5412 148.482 71.0916 148.681 71.5604C148.884 72.0291 149.168 72.3931 149.534 72.6523C149.903 72.9116 150.336 73.0412 150.833 73.0412C151.16 73.0412 151.457 72.9844 151.723 72.8707C151.989 72.7571 152.215 72.5938 152.399 72.3807C152.584 72.1676 152.715 71.9119 152.794 71.6136H154.051C153.98 72.0966 153.804 72.5316 153.523 72.9187C153.246 73.3022 152.879 73.6076 152.421 73.8349C151.966 74.0586 151.437 74.1705 150.833 74.1705ZM158.296 74.1918C157.778 74.1918 157.307 74.0941 156.884 73.8988C156.462 73.6999 156.126 73.4141 155.878 73.0412C155.629 72.6648 155.505 72.2102 155.505 71.6776C155.505 71.2088 155.597 70.8288 155.782 70.5376C155.966 70.2429 156.213 70.0121 156.522 69.8452C156.831 69.6783 157.172 69.554 157.545 69.4723C157.921 69.3871 158.3 69.3196 158.68 69.2699C159.177 69.206 159.58 69.158 159.889 69.1261C160.201 69.0906 160.428 69.032 160.571 68.9503C160.716 68.8686 160.789 68.7266 160.789 68.5241V68.4815C160.789 67.956 160.645 67.5476 160.357 67.2564C160.073 66.9652 159.642 66.8196 159.063 66.8196C158.463 66.8196 157.992 66.951 157.652 67.2138C157.311 67.4766 157.071 67.7571 156.932 68.0554L155.739 67.6293C155.952 67.1321 156.236 66.745 156.591 66.468C156.95 66.1875 157.341 65.9922 157.763 65.8821C158.189 65.7685 158.609 65.7116 159.02 65.7116C159.283 65.7116 159.585 65.7436 159.926 65.8075C160.27 65.8679 160.602 65.994 160.922 66.1857C161.245 66.3775 161.513 66.6669 161.726 67.054C161.939 67.4411 162.046 67.9595 162.046 68.6094V74H160.789V72.892H160.725C160.64 73.0696 160.498 73.2596 160.299 73.462C160.1 73.6644 159.835 73.8366 159.505 73.9787C159.175 74.1207 158.772 74.1918 158.296 74.1918ZM158.488 73.0625C158.985 73.0625 159.404 72.9648 159.745 72.7695C160.089 72.5742 160.349 72.3221 160.523 72.0131C160.7 71.7042 160.789 71.3793 160.789 71.0384V69.8878C160.736 69.9517 160.618 70.0103 160.437 70.0636C160.26 70.1133 160.054 70.1577 159.819 70.1967C159.589 70.2322 159.363 70.2642 159.143 70.2926C158.926 70.3175 158.751 70.3388 158.616 70.3565C158.289 70.3991 157.984 70.4684 157.699 70.5643C157.419 70.6566 157.192 70.7969 157.018 70.9851C156.847 71.1697 156.762 71.4219 156.762 71.7415C156.762 72.1783 156.924 72.5085 157.247 72.7322C157.573 72.9524 157.987 73.0625 158.488 73.0625ZM165.598 63.0909V74H164.341V63.0909H165.598ZM173.696 67.6506L172.566 67.9702C172.495 67.782 172.39 67.5991 172.252 67.4215C172.117 67.2404 171.932 67.0913 171.698 66.9741C171.464 66.8569 171.164 66.7983 170.798 66.7983C170.297 66.7983 169.88 66.9137 169.546 67.1445C169.216 67.3718 169.051 67.6612 169.051 68.0128C169.051 68.3253 169.164 68.5721 169.392 68.7532C169.619 68.9343 169.974 69.0852 170.457 69.206L171.671 69.5043C172.403 69.6818 172.948 69.9535 173.307 70.3192C173.665 70.6815 173.845 71.1484 173.845 71.7202C173.845 72.1889 173.71 72.608 173.44 72.9773C173.174 73.3466 172.801 73.6378 172.321 73.8509C171.842 74.0639 171.284 74.1705 170.649 74.1705C169.814 74.1705 169.123 73.9893 168.577 73.6271C168.03 73.2649 167.683 72.7358 167.538 72.0398L168.731 71.7415C168.845 72.1818 169.06 72.5121 169.376 72.7322C169.695 72.9524 170.112 73.0625 170.627 73.0625C171.213 73.0625 171.678 72.9382 172.023 72.6896C172.371 72.4375 172.545 72.1357 172.545 71.7841C172.545 71.5 172.446 71.2621 172.247 71.0703C172.048 70.875 171.742 70.7294 171.33 70.6335L169.967 70.3139C169.218 70.1364 168.667 69.8612 168.316 69.4883C167.968 69.1119 167.794 68.6413 167.794 68.0767C167.794 67.6151 167.923 67.2067 168.182 66.8516C168.445 66.4964 168.802 66.2177 169.253 66.0153C169.708 65.8129 170.223 65.7116 170.798 65.7116C171.607 65.7116 172.243 65.8892 172.705 66.2443C173.17 66.5994 173.5 67.0682 173.696 67.6506Z" fill="white"/>
</g>
<defs>
<clipPath id="clip0_308_35">
<rect width="202" height="78" fill="white"/>
</clipPath>
<clipPath id="clip1_308_35">
<rect width="202" height="47" fill="white"/>
</clipPath>
</defs>
</svg>
